<svg id="logo" xmlns="http://www.w3.org/2000/svg" viewBox="0 0 684.25 951.44"><path d="M958.79,64.28l-340.91,187V473.94L992.64,678.35v-74L841.12,520V253.55l117.67,62.87,117.67-62.87V393.73l225.66,118.66V248.92ZM768.59,483.46,686.38,437v-150l83-47.37Zm188.9-243.78L870.14,189.6,960,141l84.83,48.58Zm268.88,155.47-79-42.37V241.37l82.21,45.68Z" transform="translate(-617.88 -64.28)"/><path d="M924.94,398.19v76.13l151.52,85.27,1.61,268L958.79,762.43,839.51,830.61,837.9,686l-220-118.55v262l340.91,186.36L1302.12,828.2V606.65Zm-155.6,438.1-79.74-45V682.92l79.74,43.16ZM958.79,938.41l-88.65-49.94,88.65-48.15,86.66,49ZM1228,791l-80.6,45.27V597.65l80.6,48.22Z" transform="translate(-617.88 -64.28)"/></svg>