<svg xmlns="http://www.w3.org/2000/svg" viewBox="0 0 929.1 914.24">
    <defs>
    <style xmlns="http://www.w3.org/2000/svg">
        .cls-1,
        .cls-2{
        fill: #000;
        }
        .cls-2{
            color: lighting-color;
        }
    </style>
    </defs>
    <g id="Layer_1" data-name="Layer 1">
    <path class="cls-1"
        d="M849.05,251.63,592,102.87,548.41,84.18s-35.82-11.69-49.06,35.05V601.34s6.23,35.83,52.18,27.26,204.84-38.94,204.84-38.94l42.06-7.79-.78,225.87L571.78,905.87,569.44,701s-3.11-28.81-37.38-30.37-36.61,33.49-36.61,33.49l4.68,263.25s5.45,31.94,43.61,29.6L843.6,871.6S873.2,863.81,874,828V534.36s-3.9-35.83-39-34.27L574.12,548.38l-2.34-372.3,227.43,134L800,420.64s10.12,27.26,33.49,28,37.38-20.25,40.5-27.26V284.34S872.42,260.2,849.05,251.63Z"
        transform="translate(-495.45 -82.88)" />
    <path class="cls-2"
        d="M890.07,330.3l.17,487.07s3.6,28.53,35.92,28.53,37.39-30,37.39-30V403.51l105.14,60.75V612.63s6.23,30,35,30.38,38.55-27.91,38.55-27.91V507.49l168.63,100.86L1046.11,715.44s-21,17.53-9,48.68,49.46,14.8,49.46,14.8l308.81-123.06s25.71-11.29,28-28.82,1.56-28.82-9-38.94-60-39.72-60-39.72L939.4,303S900.2,293.69,890.07,330.3Z"
        transform="translate(-495.45 -82.88)" />
    </g>
</svg>